<svg
    width="24px"
    height="24px"
    viewBox="0 0 24 24"
    fill="currentColor"
    role="img"
    style="display:inline-block;vertical-align:middle"
    version="1.1"
    id="svg4">
  <g
      fill="currentColor"
      id="g4">
    <g
        fill="none"
        stroke="currentColor"
        stroke-linecap="round"
        stroke-width="2"
        id="g3">
      <path
          stroke-linejoin="round"
          d="M15.5 4H18a2 2 0 0 1 2 2v13a2 2 0 0 1-2 2H6a2 2 0 0 1-2-2V6a2 2 0 0 1 2-2h2.5"
          id="path1" />
      <path
          stroke-linejoin="round"
          d="M8.621 3.515A2 2 0 0 1 10.561 2h2.877a2 2 0 0 1 1.94 1.515L16 6H8l.621-2.485Z"
          id="path2" />
      <path
          d="M9 12h6m-6 4h6"
          id="path3" />
    </g>
  </g>
</svg>