<svg
    xmlns="http://www.w3.org/2000/svg"
    width="24"
    height="24"
    viewBox="0 0 24 24"
    fill="currentColor"
    role="img"
    style="display:inline-block;vertical-align:middle"
    version="1.1"
    id="svg1">
  <g
      fill="currentColor"
      id="g1">
    <path
        fill="currentColor"
        fill-rule="evenodd"
        d="M19.75 12a.75.75 0 0 0-.75-.75H5a.75.75 0 0 0 0 1.5h14a.75.75 0 0 0 .75-.75Zm0-5a.75.75 0 0 0-.75-.75H5a.75.75 0 0 0 0 1.5h14a.75.75 0 0 0 .75-.75Zm0 10a.75.75 0 0 0-.75-.75H5a.75.75 0 0 0 0 1.5h14a.75.75 0 0 0 .75-.75Z"
        clip-rule="evenodd"
        id="path1" />
  </g>
</svg>