<?xml version="1.0" encoding="UTF-8" standalone="no"?>

<svg
   width="50.966057mm"
   height="22.650187mm"
   viewBox="0 0 50.966058 22.650187"
   version="1.1"
   id="svg1"
   xmlns="http://www.w3.org/2000/svg">
  <defs
     id="defs1">
    <linearGradient
       id="swatch62">
      <stop
         style="stop-color:#fd0000;stop-opacity:1;"
         offset="0"
         id="stop63" />
    </linearGradient>
    <linearGradient
       id="swatch30">
      <stop
         style="stop-color:#666666;stop-opacity:1;"
         offset="0"
         id="stop30" />
    </linearGradient>
    <clipPath
       clipPathUnits="userSpaceOnUse"
       id="clipPath68">
      <g
         id="use68"
         style="fill:url(#meshgradient83);fill-opacity:1">
        <ellipse
           style="fill:url(#meshgradient75);fill-opacity:1;fill-rule:nonzero;stroke:url(#meshgradient79);stroke-width:1.07122;stroke-opacity:0"
           id="ellipse75"
           cx="81.480377"
           cy="178.53767"
           rx="20.501223"
           ry="19.889168" />
      </g>
    </clipPath>
    <meshgradient
       id="meshgradient75"
       gradientUnits="userSpaceOnUse"
       gradientTransform="translate(9.8467742,2.483871)"
       x="57.137051"
       y="161.99004">
      <meshrow
         id="meshrow79">
        <meshpatch
           id="meshpatch79">
          <stop
             path="c 8.00623,-7.7672  20.9869,-7.7672  28.9931,0"
             style="stop-color:#ffffff;stop-opacity:1"
             id="stop76" />
          <stop
             path="c 8.00623,7.7672  8.00623,20.3603  0,28.1275"
             style="stop-color:#fd0000;stop-opacity:1"
             id="stop77" />
          <stop
             path="c -8.00623,7.7672  -20.9869,7.7672  -28.9931,0"
             style="stop-color:#ffffff;stop-opacity:1"
             id="stop78" />
          <stop
             path="c -8.00623,-7.7672  -8.00623,-20.3603  0,-28.1275"
             style="stop-color:#fd0000;stop-opacity:1"
             id="stop79" />
        </meshpatch>
      </meshrow>
    </meshgradient>
    <meshgradient
       id="meshgradient79"
       gradientUnits="userSpaceOnUse"
       gradientTransform="translate(9.8467742,2.483871)"
       x="56.758324"
       y="161.61131">
      <meshrow
         id="meshrow83">
        <meshpatch
           id="meshpatch83">
          <stop
             path="c 8.2154,-7.97638  21.5352,-7.97638  29.7506,0"
             style="stop-color:#ffffff;stop-opacity:1"
             id="stop80" />
          <stop
             path="c 8.2154,7.97638  8.2154,20.9086  0,28.885"
             style="stop-color:#fd0000;stop-opacity:1"
             id="stop81" />
          <stop
             path="c -8.2154,7.97638  -21.5352,7.97638  -29.7506,0"
             style="stop-color:#ffffff;stop-opacity:1"
             id="stop82" />
          <stop
             path="c -8.2154,-7.97638  -8.2154,-20.9086  0,-28.885"
             style="stop-color:#fd0000;stop-opacity:1"
             id="stop83" />
        </meshpatch>
      </meshrow>
    </meshgradient>
    <meshgradient
       id="meshgradient83"
       gradientUnits="userSpaceOnUse"
       x="60.979156"
       y="158.64851">
      <meshrow
         id="meshrow87">
        <meshpatch
           id="meshpatch87">
          <stop
             path="c 13.6675,0  27.335,0  41.0024,0"
             style="stop-color:#ffffff;stop-opacity:1"
             id="stop84" />
          <stop
             path="c 0,13.2594  0,26.5189  0,39.7783"
             style="stop-color:#000000;stop-opacity:1"
             id="stop85" />
          <stop
             path="c -13.6675,0  -27.335,0  -41.0024,0"
             style="stop-color:#ffffff;stop-opacity:1"
             id="stop86" />
          <stop
             path="c 0,-13.2594  0,-26.5189  0,-39.7783"
             style="stop-color:#000000;stop-opacity:1"
             id="stop87" />
        </meshpatch>
      </meshrow>
    </meshgradient>
  </defs>
  <g
     id="layer1"
     transform="translate(-49.72232,-112.26862)">
    <text
       xml:space="preserve"
       style="font-size:31.75px;font-family:'Rapier Zero';-inkscape-font-specification:'Rapier Zero, Normal';fill:#ffffff;fill-opacity:1;stroke:#950000;stroke-width:1"
       x="76.025383"
       y="118.17807"
       id="text1"><tspan
         id="tspan1"
         style="stroke-width:1"
         x="76.025383"
         y="118.17807" /></text>
    <text
       xml:space="preserve"
       style="font-style:normal;font-variant:normal;font-weight:normal;font-stretch:normal;font-size:31.75px;font-family:Comfortaa;-inkscape-font-specification:'Comfortaa, @wght=500';font-variant-ligatures:normal;font-variant-caps:normal;font-variant-numeric:normal;font-variant-east-asian:normal;font-variation-settings:'wght' 500;fill:#000000;fill-opacity:1;stroke:#950000;stroke-width:1;stroke-opacity:0"
       x="55.199947"
       y="115.41808"
       id="text2"><tspan
         style="fill:#000000;fill-opacity:1;stroke:#950000;stroke-width:1;stroke-opacity:0"
         x="55.199947"
         y="115.41808"
         id="tspan3" /></text>
    <g
       id="text36"
       style="font-size:14.1111px;font-family:Comfortaa;-inkscape-font-specification:'Comfortaa, @wght=300';font-variation-settings:'wght' 300;stroke:#950000;stroke-width:2.47289;stroke-opacity:0"
       transform="scale(0.97823086,1.0222536)"
       aria-label="manga">
      <path
         d="m 62.718438,118.85171 q -0.183444,0 -0.310444,-0.11289 -0.112889,-0.127 -0.112889,-0.31045 v -4.0781 q 0,-1.08656 -0.578555,-1.778 -0.564444,-0.69145 -1.481666,-0.69145 -0.973665,0 -1.594554,0.64911 -0.606777,0.635 -0.578555,1.72156 h -0.846666 q 0.02822,-0.97367 0.423333,-1.69333 0.395111,-0.71967 1.072444,-1.11478 0.677332,-0.40922 1.523998,-0.40922 0.860778,0 1.509888,0.42333 0.649111,0.42333 1.015999,1.17122 0.381,0.74789 0.381,1.72156 v 4.0781 q 0,0.18345 -0.112889,0.31045 -0.112889,0.11289 -0.310444,0.11289 z m -10.202325,0 q -0.183445,0 -0.310445,-0.11289 -0.112888,-0.127 -0.112888,-0.31045 v -6.8721 q 0,-0.19756 0.112888,-0.31045 0.127,-0.11288 0.310445,-0.11288 0.197555,0 0.310444,0.11288 0.112889,0.11289 0.112889,0.31045 v 6.8721 q 0,0.18345 -0.112889,0.31045 -0.112889,0.11289 -0.310444,0.11289 z m 5.122329,0 q -0.183444,0 -0.310444,-0.11289 -0.112889,-0.127 -0.112889,-0.31045 v -4.0781 q 0,-1.08656 -0.578555,-1.778 -0.564444,-0.69145 -1.481666,-0.69145 -0.973666,0 -1.594554,0.62089 -0.620888,0.62089 -0.620888,1.60867 h -0.705555 q 0.04233,-0.90311 0.423333,-1.59456 0.39511,-0.69144 1.044221,-1.08655 0.649111,-0.39511 1.453443,-0.39511 0.860777,0 1.509888,0.42333 0.649111,0.42333 1.015999,1.17122 0.381,0.74789 0.381,1.72156 v 4.0781 q 0,0.18345 -0.112889,0.31045 -0.112889,0.11289 -0.310444,0.11289 z"
         id="path1" />
      <path
         style="fill:#fd0000"
         d="m 69.068421,118.93637 q -1.128888,0 -2.031998,-0.508 -0.889,-0.52211 -1.41111,-1.41111 -0.508,-0.90311 -0.508,-2.01788 0,-1.12889 0.508,-2.01789 0.52211,-0.90311 1.41111,-1.41111 0.90311,-0.52211 2.031998,-0.52211 1.128888,0 2.017887,0.52211 0.889,0.508 1.396999,1.41111 0.522111,0.889 0.522111,2.01789 l -0.352777,0.56444 q 0,0.95956 -0.479778,1.72156 -0.465666,0.76199 -1.269999,1.21355 -0.804333,0.43744 -1.834443,0.43744 z m 0,-0.79022 q 0.888999,0 1.580443,-0.40922 0.705555,-0.42333 1.100666,-1.12889 0.409222,-0.71966 0.409222,-1.60866 0,-0.90311 -0.409222,-1.60867 -0.395111,-0.71966 -1.100666,-1.12889 -0.691444,-0.42333 -1.580443,-0.42333 -0.874888,0 -1.580443,0.42333 -0.705555,0.40923 -1.114777,1.12889 -0.409222,0.70556 -0.409222,1.60867 0,0.889 0.409222,1.60866 0.409222,0.70556 1.114777,1.12889 0.705555,0.40922 1.580443,0.40922 z m 3.513664,0.70556 q -0.183444,0 -0.310444,-0.11289 -0.112889,-0.127 -0.112889,-0.31045 v -2.58233 l 0.268111,-0.84666 h 0.578555 v 3.42899 q 0,0.18345 -0.112889,0.31045 -0.112889,0.11289 -0.310444,0.11289 z"
         id="path2" />
      <path
         d="m 81.796646,118.85171 q -0.183444,0 -0.310444,-0.11289 -0.112889,-0.127 -0.112889,-0.31045 v -3.79588 q 0,-0.93133 -0.366889,-1.53811 -0.352777,-0.60678 -0.973666,-0.90311 -0.606777,-0.31045 -1.382887,-0.31045 -0.762,0 -1.368777,0.29634 -0.606777,0.28222 -0.959555,0.79022 -0.352777,0.508 -0.352777,1.143 h -0.705555 q 0.05644,-0.87489 0.52211,-1.56633 0.465667,-0.70556 1.213555,-1.10067 0.747888,-0.40922 1.650999,-0.40922 1.015999,0 1.820332,0.42333 0.818443,0.40922 1.28411,1.21356 0.465666,0.79022 0.465666,1.96144 v 3.79588 q 0,0.18345 -0.127,0.31045 -0.112889,0.11289 -0.296333,0.11289 z m -6.251217,0 q -0.183445,0 -0.310445,-0.11289 -0.112888,-0.127 -0.112888,-0.31045 v -6.8721 q 0,-0.19756 0.112888,-0.31045 0.127,-0.11288 0.310445,-0.11288 0.197555,0 0.310444,0.11288 0.112889,0.11289 0.112889,0.31045 v 6.8721 q 0,0.18345 -0.112889,0.31045 -0.112889,0.11289 -0.310444,0.11289 z m 12.601218,0.0847 q -1.15711,0 -2.046109,-0.508 -0.889,-0.508 -1.396999,-1.39699 -0.508,-0.889 -0.508,-2.032 0,-1.15711 0.522111,-2.04611 0.522111,-0.889 1.41111,-1.397 0.90311,-0.508 2.017887,-0.508 1.15711,0 2.031999,0.508 0.888999,0.508 1.396999,1.397 0.507999,0.889 0.507999,2.04611 l -0.493888,0.56444 q 0,0.98778 -0.437444,1.74978 -0.437445,0.762 -1.213555,1.19944 -0.776111,0.42333 -1.79211,0.42333 z m 0.05644,2.86456 q -1.171222,0 -2.003777,-0.43745 -0.818443,-0.43744 -1.354665,-1.11477 -0.112889,-0.14111 -0.112889,-0.29634 0,-0.15522 0.141111,-0.254 0.141111,-0.11289 0.324555,-0.0847 0.197556,0.0282 0.296333,0.18344 0.437444,0.52211 1.114777,0.86078 0.677333,0.35278 1.594555,0.35278 0.874888,0 1.552221,-0.42334 0.691444,-0.42333 1.086554,-1.17122 0.395111,-0.73378 0.395111,-1.651 v -2.24366 l 0.381,-0.52211 h 0.465666 v 2.76577 q 0,1.143 -0.507999,2.06022 -0.508,0.91722 -1.382888,1.43934 -0.874888,0.53622 -1.989665,0.53622 z m -0.05644,-3.65478 q 0.903111,0 1.594555,-0.39511 0.705555,-0.40922 1.100665,-1.11478 0.395111,-0.71966 0.395111,-1.63688 0,-0.93134 -0.395111,-1.63689 -0.39511,-0.71967 -1.100665,-1.11478 -0.691444,-0.40922 -1.594555,-0.40922 -0.90311,0 -1.608665,0.40922 -0.705555,0.39511 -1.100666,1.11478 -0.395111,0.70555 -0.395111,1.63689 0,0.91722 0.395111,1.63688 0.395111,0.70556 1.100666,1.11478 0.705555,0.39511 1.608665,0.39511 z m 9.581448,0.79022 q -1.128888,0 -2.031999,-0.508 -0.888999,-0.52211 -1.41111,-1.41111 -0.507999,-0.90311 -0.507999,-2.01788 0,-1.12889 0.507999,-2.01789 0.522111,-0.90311 1.41111,-1.41111 0.903111,-0.52211 2.031999,-0.52211 1.128888,0 2.017887,0.52211 0.888998,0.508 1.396998,1.41111 0.52211,0.889 0.52211,2.01789 l -0.35278,0.56444 q 0,0.95956 -0.47977,1.72156 -0.46567,0.76199 -1.270002,1.21355 -0.804333,0.43744 -1.834443,0.43744 z m 0,-0.79022 q 0.888999,0 1.580443,-0.40922 0.705552,-0.42333 1.100662,-1.12889 0.40923,-0.71966 0.40923,-1.60866 0,-0.90311 -0.40923,-1.60867 -0.39511,-0.71966 -1.100662,-1.12889 -0.691444,-0.42333 -1.580443,-0.42333 -0.874888,0 -1.580443,0.42333 -0.705555,0.40923 -1.114777,1.12889 -0.409222,0.70556 -0.409222,1.60867 0,0.889 0.409222,1.60866 0.409222,0.70556 1.114777,1.12889 0.705555,0.40922 1.580443,0.40922 z m 3.513665,0.70556 q -0.18345,0 -0.31045,-0.11289 -0.11288,-0.127 -0.11288,-0.31045 v -2.58233 l 0.26811,-0.84666 h 0.57855 v 3.42899 q 0,0.18345 -0.11289,0.31045 -0.11289,0.11289 -0.31044,0.11289 z"
         id="path3" />
    </g>
    <text
       xml:space="preserve"
       style="font-style:normal;font-variant:normal;font-weight:normal;font-stretch:normal;font-size:31.75px;font-family:Comfortaa;-inkscape-font-specification:'Comfortaa, @wght=500';font-variant-ligatures:normal;font-variant-caps:normal;font-variant-numeric:normal;font-variant-east-asian:normal;font-variation-settings:'wght' 500;fill:#a960e6;fill-opacity:1;fill-rule:nonzero;stroke:#950000;stroke-width:1;stroke-opacity:0"
       x="145.12903"
       y="76.1129"
       id="text38"><tspan
         id="tspan38"
         style="stroke-width:1"
         x="145.12903"
         y="76.1129" /></text>
    <g
       id="text39"
       style="font-size:14.1111px;font-family:Comfortaa;-inkscape-font-specification:'Comfortaa, @wght=300';font-variation-settings:'wght' 300;stroke:#950000;stroke-width:2.47289;stroke-opacity:0"
       transform="scale(0.97823085,1.0222536)"
       aria-label="realm">
      <path
         d="m 61.488371,126.01597 q 0.08467,-0.90311 0.493888,-1.59455 0.409222,-0.70556 1.058333,-1.10067 0.64911,-0.39511 1.439332,-0.39511 0.536222,0 0.832555,0.127 0.296333,0.127 0.225777,0.45156 -0.04233,0.21166 -0.197555,0.254 -0.155222,0.0423 -0.381,0.0141 -0.211666,-0.0423 -0.479777,-0.0423 -0.705555,0 -1.255888,0.29634 -0.550333,0.29633 -0.860777,0.81844 -0.310444,0.508 -0.310444,1.17122 z m 0.141111,4.71311 q -0.183445,0 -0.310445,-0.11289 -0.112888,-0.127 -0.112888,-0.31044 v -6.87211 q 0,-0.19755 0.112888,-0.31044 0.127,-0.11289 0.310445,-0.11289 0.197555,0 0.310444,0.11289 0.112889,0.11289 0.112889,0.31044 v 6.87211 q 0,0.18344 -0.112889,0.31044 -0.112889,0.11289 -0.310444,0.11289 z m 8.607754,0.0706 q -1.114777,0 -1.989665,-0.49389 -0.860777,-0.508 -1.354666,-1.397 -0.493888,-0.889 -0.493888,-2.032 0,-1.15711 0.465666,-2.032 0.465666,-0.889 1.28411,-1.397 0.818444,-0.508 1.876776,-0.508 1.044222,0 1.848554,0.49389 0.804333,0.47978 1.255888,1.34056 0.451556,0.84666 0.451556,1.96144 0,0.18344 -0.112889,0.29633 -0.112889,0.0988 -0.296333,0.0988 h -6.208884 v -0.73378 h 6.434661 l -0.620888,0.46567 q 0.02822,-0.91722 -0.310444,-1.62278 -0.338667,-0.70555 -0.973666,-1.10066 -0.620889,-0.40923 -1.467555,-0.40923 -0.804332,0 -1.439332,0.40923 -0.620888,0.39511 -0.987777,1.10066 -0.352777,0.70556 -0.352777,1.63689 0,0.91722 0.380999,1.62278 0.381,0.70555 1.058333,1.11477 0.677333,0.39511 1.552221,0.39511 0.550333,0 1.100666,-0.18344 0.564444,-0.19756 0.888999,-0.508 0.112889,-0.11289 0.268111,-0.11289 0.169333,-0.0141 0.282222,0.0847 0.155222,0.127 0.155222,0.28222 0.01411,0.15522 -0.127,0.28222 -0.451555,0.40922 -1.185332,0.67733 -0.719667,0.26812 -1.382888,0.26812 z"
         id="path4" />
      <path
         style="fill:#3c78ff"
         d="m 78.943774,130.81375 q -1.128888,0 -2.031998,-0.508 -0.889,-0.52211 -1.41111,-1.41111 -0.508,-0.90311 -0.508,-2.01789 0,-1.12889 0.508,-2.01789 0.52211,-0.90311 1.41111,-1.41111 0.90311,-0.52211 2.031998,-0.52211 1.128888,0 2.017887,0.52211 0.889,0.508 1.396999,1.41111 0.522111,0.889 0.522111,2.01789 l -0.352778,0.56444 q 0,0.95956 -0.479777,1.72156 -0.465666,0.762 -1.269999,1.21355 -0.804333,0.43745 -1.834443,0.43745 z m 0,-0.79022 q 0.888999,0 1.580443,-0.40923 0.705555,-0.42333 1.100666,-1.12888 0.409222,-0.71967 0.409222,-1.60867 0,-0.90311 -0.409222,-1.60867 -0.395111,-0.71966 -1.100666,-1.12888 -0.691444,-0.42334 -1.580443,-0.42334 -0.874888,0 -1.580443,0.42334 -0.705555,0.40922 -1.114777,1.12888 -0.409222,0.70556 -0.409222,1.60867 0,0.889 0.409222,1.60867 0.409222,0.70555 1.114777,1.12888 0.705555,0.40923 1.580443,0.40923 z m 3.513664,0.70555 q -0.183444,0 -0.310444,-0.11289 -0.112889,-0.127 -0.112889,-0.31044 v -2.58233 l 0.268111,-0.84667 h 0.578555 v 3.429 q 0,0.18344 -0.112889,0.31044 -0.112889,0.11289 -0.310444,0.11289 z"
         id="path5" />
      <path
         d="m 86.549669,130.72908 q -0.536221,0 -0.959554,-0.29633 -0.409222,-0.29634 -0.649111,-0.81845 -0.225778,-0.52211 -0.225778,-1.21355 v -8.26911 q 0,-0.19755 0.112889,-0.31044 0.127,-0.11289 0.310444,-0.11289 0.197556,0 0.310445,0.11289 0.112888,0.11289 0.112888,0.31044 v 8.26911 q 0,0.64911 0.268111,1.07244 0.282222,0.40922 0.719666,0.40922 h 0.352778 q 0.155222,0 0.254,0.11289 0.09878,0.11289 0.09878,0.31045 0,0.18344 -0.112888,0.31044 -0.112889,0.11289 -0.310445,0.11289 z m 12.883441,0 q -0.183444,0 -0.310444,-0.11289 -0.112889,-0.127 -0.112889,-0.31044 v -4.07811 q 0,-1.08656 -0.578555,-1.778 -0.564444,-0.69144 -1.481665,-0.69144 -0.973666,0 -1.594555,0.64911 -0.606777,0.635 -0.578555,1.72155 h -0.846666 q 0.02822,-0.97366 0.423333,-1.69333 0.395111,-0.71967 1.072444,-1.11478 0.677333,-0.40922 1.523999,-0.40922 0.860777,0 1.509887,0.42333 0.649111,0.42334 1.015999,1.17123 0.381,0.74788 0.381,1.72155 v 4.07811 q 0,0.18344 -0.112889,0.31044 -0.112888,0.11289 -0.310444,0.11289 z m -10.202325,0 q -0.183445,0 -0.310444,-0.11289 -0.112889,-0.127 -0.112889,-0.31044 v -6.87211 q 0,-0.19755 0.112889,-0.31044 0.126999,-0.11289 0.310444,-0.11289 0.197555,0 0.310444,0.11289 0.112889,0.11289 0.112889,0.31044 v 6.87211 q 0,0.18344 -0.112889,0.31044 -0.112889,0.11289 -0.310444,0.11289 z m 5.122329,0 q -0.183444,0 -0.310444,-0.11289 -0.112889,-0.127 -0.112889,-0.31044 v -4.07811 q 0,-1.08656 -0.578555,-1.778 -0.564444,-0.69144 -1.481666,-0.69144 -0.973665,0 -1.594554,0.62089 -0.620888,0.62088 -0.620888,1.60866 h -0.705555 q 0.04233,-0.90311 0.423333,-1.59455 0.395111,-0.69145 1.044221,-1.08656 0.649111,-0.39511 1.453443,-0.39511 0.860778,0 1.509888,0.42333 0.649111,0.42334 1.015999,1.17123 0.381,0.74788 0.381,1.72155 v 4.07811 q 0,0.18344 -0.112889,0.31044 -0.112889,0.11289 -0.310444,0.11289 z"
         id="path6" />
    </g>
  </g>
  <script
     id="mesh_polyfill"
     type="text/javascript">
!function(){const t=&quot;http://www.w3.org/2000/svg&quot;,e=&quot;http://www.w3.org/1999/xlink&quot;,s=&quot;http://www.w3.org/1999/xhtml&quot;,r=2;if(document.createElementNS(t,&quot;meshgradient&quot;).x)return;const n=(t,e,s,r)=&gt;{let n=new x(.5*(e.x+s.x),.5*(e.y+s.y)),o=new x(.5*(t.x+e.x),.5*(t.y+e.y)),i=new x(.5*(s.x+r.x),.5*(s.y+r.y)),a=new x(.5*(n.x+o.x),.5*(n.y+o.y)),h=new x(.5*(n.x+i.x),.5*(n.y+i.y)),l=new x(.5*(a.x+h.x),.5*(a.y+h.y));return[[t,o,a,l],[l,h,i,r]]},o=t=&gt;{let e=t[0].distSquared(t[1]),s=t[2].distSquared(t[3]),r=.25*t[0].distSquared(t[2]),n=.25*t[1].distSquared(t[3]),o=e&gt;s?e:s,i=r&gt;n?r:n;return 18*(o&gt;i?o:i)},i=(t,e)=&gt;Math.sqrt(t.distSquared(e)),a=(t,e)=&gt;t.scale(2/3).add(e.scale(1/3)),h=t=&gt;{let e,s,r,n,o,i,a,h=new g;return t.match(/(\w+\(\s*[^)]+\))+/g).forEach(t=&gt;{let l=t.match(/[\w.-]+/g),d=l.shift();switch(d){case&quot;translate&quot;:2===l.length?e=new g(1,0,0,1,l[0],l[1]):(console.error(&quot;mesh.js: translate does not have 2 arguments!&quot;),e=new g(1,0,0,1,0,0)),h=h.append(e);break;case&quot;scale&quot;:1===l.length?s=new g(l[0],0,0,l[0],0,0):2===l.length?s=new g(l[0],0,0,l[1],0,0):(console.error(&quot;mesh.js: scale does not have 1 or 2 arguments!&quot;),s=new g(1,0,0,1,0,0)),h=h.append(s);break;case&quot;rotate&quot;:if(3===l.length&amp;&amp;(e=new g(1,0,0,1,l[1],l[2]),h=h.append(e)),l[0]){r=l[0]*Math.PI/180;let t=Math.cos(r),e=Math.sin(r);Math.abs(t)&lt;1e-16&amp;&amp;(t=0),Math.abs(e)&lt;1e-16&amp;&amp;(e=0),a=new g(t,e,-e,t,0,0),h=h.append(a)}else console.error(&quot;math.js: No argument to rotate transform!&quot;);3===l.length&amp;&amp;(e=new g(1,0,0,1,-l[1],-l[2]),h=h.append(e));break;case&quot;skewX&quot;:l[0]?(r=l[0]*Math.PI/180,n=Math.tan(r),o=new g(1,0,n,1,0,0),h=h.append(o)):console.error(&quot;math.js: No argument to skewX transform!&quot;);break;case&quot;skewY&quot;:l[0]?(r=l[0]*Math.PI/180,n=Math.tan(r),i=new g(1,n,0,1,0,0),h=h.append(i)):console.error(&quot;math.js: No argument to skewY transform!&quot;);break;case&quot;matrix&quot;:6===l.length?h=h.append(new g(...l)):console.error(&quot;math.js: Incorrect number of arguments for matrix!&quot;);break;default:console.error(&quot;mesh.js: Unhandled transform type: &quot;+d)}}),h},l=t=&gt;{let e=[],s=t.split(/[ ,]+/);for(let t=0,r=s.length-1;t&lt;r;t+=2)e.push(new x(parseFloat(s[t]),parseFloat(s[t+1])));return e},d=(t,e)=&gt;{for(let s in e)t.setAttribute(s,e[s])},c=(t,e,s,r,n)=&gt;{let o,i,a=[0,0,0,0];for(let h=0;h&lt;3;++h)e[h]&lt;t[h]&amp;&amp;e[h]&lt;s[h]||t[h]&lt;e[h]&amp;&amp;s[h]&lt;e[h]?a[h]=0:(a[h]=.5*((e[h]-t[h])/r+(s[h]-e[h])/n),o=Math.abs(3*(e[h]-t[h])/r),i=Math.abs(3*(s[h]-e[h])/n),a[h]&gt;o?a[h]=o:a[h]&gt;i&amp;&amp;(a[h]=i));return a},u=[[1,0,0,0,0,0,0,0,0,0,0,0,0,0,0,0],[0,0,0,0,1,0,0,0,0,0,0,0,0,0,0,0],[-3,3,0,0,-2,-1,0,0,0,0,0,0,0,0,0,0],[2,-2,0,0,1,1,0,0,0,0,0,0,0,0,0,0],[0,0,0,0,0,0,0,0,1,0,0,0,0,0,0,0],[0,0,0,0,0,0,0,0,0,0,0,0,1,0,0,0],[0,0,0,0,0,0,0,0,-3,3,0,0,-2,-1,0,0],[0,0,0,0,0,0,0,0,2,-2,0,0,1,1,0,0],[-3,0,3,0,0,0,0,0,-2,0,-1,0,0,0,0,0],[0,0,0,0,-3,0,3,0,0,0,0,0,-2,0,-1,0],[9,-9,-9,9,6,3,-6,-3,6,-6,3,-3,4,2,2,1],[-6,6,6,-6,-3,-3,3,3,-4,4,-2,2,-2,-2,-1,-1],[2,0,-2,0,0,0,0,0,1,0,1,0,0,0,0,0],[0,0,0,0,2,0,-2,0,0,0,0,0,1,0,1,0],[-6,6,6,-6,-4,-2,4,2,-3,3,-3,3,-2,-1,-2,-1],[4,-4,-4,4,2,2,-2,-2,2,-2,2,-2,1,1,1,1]],f=t=&gt;{let e=[];for(let s=0;s&lt;16;++s){e[s]=0;for(let r=0;r&lt;16;++r)e[s]+=u[s][r]*t[r]}return e},p=(t,e,s)=&gt;{const r=e*e,n=s*s,o=e*e*e,i=s*s*s;return t[0]+t[1]*e+t[2]*r+t[3]*o+t[4]*s+t[5]*s*e+t[6]*s*r+t[7]*s*o+t[8]*n+t[9]*n*e+t[10]*n*r+t[11]*n*o+t[12]*i+t[13]*i*e+t[14]*i*r+t[15]*i*o},y=t=&gt;{let e=[],s=[],r=[];for(let s=0;s&lt;4;++s)e[s]=[],e[s][0]=n(t[0][s],t[1][s],t[2][s],t[3][s]),e[s][1]=[],e[s][1].push(...n(...e[s][0][0])),e[s][1].push(...n(...e[s][0][1])),e[s][2]=[],e[s][2].push(...n(...e[s][1][0])),e[s][2].push(...n(...e[s][1][1])),e[s][2].push(...n(...e[s][1][2])),e[s][2].push(...n(...e[s][1][3]));for(let t=0;t&lt;8;++t){s[t]=[];for(let r=0;r&lt;4;++r)s[t][r]=[],s[t][r][0]=n(e[0][2][t][r],e[1][2][t][r],e[2][2][t][r],e[3][2][t][r]),s[t][r][1]=[],s[t][r][1].push(...n(...s[t][r][0][0])),s[t][r][1].push(...n(...s[t][r][0][1])),s[t][r][2]=[],s[t][r][2].push(...n(...s[t][r][1][0])),s[t][r][2].push(...n(...s[t][r][1][1])),s[t][r][2].push(...n(...s[t][r][1][2])),s[t][r][2].push(...n(...s[t][r][1][3]))}for(let t=0;t&lt;8;++t){r[t]=[];for(let e=0;e&lt;8;++e)r[t][e]=[],r[t][e][0]=s[t][0][2][e],r[t][e][1]=s[t][1][2][e],r[t][e][2]=s[t][2][2][e],r[t][e][3]=s[t][3][2][e]}return r};class x{constructor(t,e){this.x=t||0,this.y=e||0}toString(){return`(x=${this.x}, y=${this.y})`}clone(){return new x(this.x,this.y)}add(t){return new x(this.x+t.x,this.y+t.y)}scale(t){return void 0===t.x?new x(this.x*t,this.y*t):new x(this.x*t.x,this.y*t.y)}distSquared(t){let e=this.x-t.x,s=this.y-t.y;return e*e+s*s}transform(t){let e=this.x*t.a+this.y*t.c+t.e,s=this.x*t.b+this.y*t.d+t.f;return new x(e,s)}}class g{constructor(t,e,s,r,n,o){void 0===t?(this.a=1,this.b=0,this.c=0,this.d=1,this.e=0,this.f=0):(this.a=t,this.b=e,this.c=s,this.d=r,this.e=n,this.f=o)}toString(){return`affine: ${this.a} ${this.c} ${this.e} \n       ${this.b} ${this.d} ${this.f}`}append(t){t instanceof g||console.error(&quot;mesh.js: argument to Affine.append is not affine!&quot;);let e=this.a*t.a+this.c*t.b,s=this.b*t.a+this.d*t.b,r=this.a*t.c+this.c*t.d,n=this.b*t.c+this.d*t.d,o=this.a*t.e+this.c*t.f+this.e,i=this.b*t.e+this.d*t.f+this.f;return new g(e,s,r,n,o,i)}}class w{constructor(t,e){this.nodes=t,this.colors=e}paintCurve(t,e){if(o(this.nodes)&gt;r){const s=n(...this.nodes);let r=[[],[]],o=[[],[]];for(let t=0;t&lt;4;++t)r[0][t]=this.colors[0][t],r[1][t]=(this.colors[0][t]+this.colors[1][t])/2,o[0][t]=r[1][t],o[1][t]=this.colors[1][t];let i=new w(s[0],r),a=new w(s[1],o);i.paintCurve(t,e),a.paintCurve(t,e)}else{let s=Math.round(this.nodes[0].x);if(s&gt;=0&amp;&amp;s&lt;e){let r=4*(~~this.nodes[0].y*e+s);t[r]=Math.round(this.colors[0][0]),t[r+1]=Math.round(this.colors[0][1]),t[r+2]=Math.round(this.colors[0][2]),t[r+3]=Math.round(this.colors[0][3])}}}}class m{constructor(t,e){this.nodes=t,this.colors=e}split(){let t=[[],[],[],[]],e=[[],[],[],[]],s=[[[],[]],[[],[]]],r=[[[],[]],[[],[]]];for(let s=0;s&lt;4;++s){const r=n(this.nodes[0][s],this.nodes[1][s],this.nodes[2][s],this.nodes[3][s]);t[0][s]=r[0][0],t[1][s]=r[0][1],t[2][s]=r[0][2],t[3][s]=r[0][3],e[0][s]=r[1][0],e[1][s]=r[1][1],e[2][s]=r[1][2],e[3][s]=r[1][3]}for(let t=0;t&lt;4;++t)s[0][0][t]=this.colors[0][0][t],s[0][1][t]=this.colors[0][1][t],s[1][0][t]=(this.colors[0][0][t]+this.colors[1][0][t])/2,s[1][1][t]=(this.colors[0][1][t]+this.colors[1][1][t])/2,r[0][0][t]=s[1][0][t],r[0][1][t]=s[1][1][t],r[1][0][t]=this.colors[1][0][t],r[1][1][t]=this.colors[1][1][t];return[new m(t,s),new m(e,r)]}paint(t,e){let s,n=!1;for(let t=0;t&lt;4;++t)if((s=o([this.nodes[0][t],this.nodes[1][t],this.nodes[2][t],this.nodes[3][t]]))&gt;r){n=!0;break}if(n){let s=this.split();s[0].paint(t,e),s[1].paint(t,e)}else{new w([...this.nodes[0]],[...this.colors[0]]).paintCurve(t,e)}}}class b{constructor(t){this.readMesh(t),this.type=t.getAttribute(&quot;type&quot;)||&quot;bilinear&quot;}readMesh(t){let e=[[]],s=[[]],r=Number(t.getAttribute(&quot;x&quot;)),n=Number(t.getAttribute(&quot;y&quot;));e[0][0]=new x(r,n);let o=t.children;for(let t=0,r=o.length;t&lt;r;++t){e[3*t+1]=[],e[3*t+2]=[],e[3*t+3]=[],s[t+1]=[];let r=o[t].children;for(let n=0,o=r.length;n&lt;o;++n){let o=r[n].children;for(let r=0,i=o.length;r&lt;i;++r){let i=r;0!==t&amp;&amp;++i;let h,d=o[r].getAttribute(&quot;path&quot;),c=&quot;l&quot;;null!=d&amp;&amp;(c=(h=d.match(/\s*([lLcC])\s*(.*)/))[1]);let u=l(h[2]);switch(c){case&quot;l&quot;:0===i?(e[3*t][3*n+3]=u[0].add(e[3*t][3*n]),e[3*t][3*n+1]=a(e[3*t][3*n],e[3*t][3*n+3]),e[3*t][3*n+2]=a(e[3*t][3*n+3],e[3*t][3*n])):1===i?(e[3*t+3][3*n+3]=u[0].add(e[3*t][3*n+3]),e[3*t+1][3*n+3]=a(e[3*t][3*n+3],e[3*t+3][3*n+3]),e[3*t+2][3*n+3]=a(e[3*t+3][3*n+3],e[3*t][3*n+3])):2===i?(0===n&amp;&amp;(e[3*t+3][3*n+0]=u[0].add(e[3*t+3][3*n+3])),e[3*t+3][3*n+1]=a(e[3*t+3][3*n],e[3*t+3][3*n+3]),e[3*t+3][3*n+2]=a(e[3*t+3][3*n+3],e[3*t+3][3*n])):(e[3*t+1][3*n]=a(e[3*t][3*n],e[3*t+3][3*n]),e[3*t+2][3*n]=a(e[3*t+3][3*n],e[3*t][3*n]));break;case&quot;L&quot;:0===i?(e[3*t][3*n+3]=u[0],e[3*t][3*n+1]=a(e[3*t][3*n],e[3*t][3*n+3]),e[3*t][3*n+2]=a(e[3*t][3*n+3],e[3*t][3*n])):1===i?(e[3*t+3][3*n+3]=u[0],e[3*t+1][3*n+3]=a(e[3*t][3*n+3],e[3*t+3][3*n+3]),e[3*t+2][3*n+3]=a(e[3*t+3][3*n+3],e[3*t][3*n+3])):2===i?(0===n&amp;&amp;(e[3*t+3][3*n+0]=u[0]),e[3*t+3][3*n+1]=a(e[3*t+3][3*n],e[3*t+3][3*n+3]),e[3*t+3][3*n+2]=a(e[3*t+3][3*n+3],e[3*t+3][3*n])):(e[3*t+1][3*n]=a(e[3*t][3*n],e[3*t+3][3*n]),e[3*t+2][3*n]=a(e[3*t+3][3*n],e[3*t][3*n]));break;case&quot;c&quot;:0===i?(e[3*t][3*n+1]=u[0].add(e[3*t][3*n]),e[3*t][3*n+2]=u[1].add(e[3*t][3*n]),e[3*t][3*n+3]=u[2].add(e[3*t][3*n])):1===i?(e[3*t+1][3*n+3]=u[0].add(e[3*t][3*n+3]),e[3*t+2][3*n+3]=u[1].add(e[3*t][3*n+3]),e[3*t+3][3*n+3]=u[2].add(e[3*t][3*n+3])):2===i?(e[3*t+3][3*n+2]=u[0].add(e[3*t+3][3*n+3]),e[3*t+3][3*n+1]=u[1].add(e[3*t+3][3*n+3]),0===n&amp;&amp;(e[3*t+3][3*n+0]=u[2].add(e[3*t+3][3*n+3]))):(e[3*t+2][3*n]=u[0].add(e[3*t+3][3*n]),e[3*t+1][3*n]=u[1].add(e[3*t+3][3*n]));break;case&quot;C&quot;:0===i?(e[3*t][3*n+1]=u[0],e[3*t][3*n+2]=u[1],e[3*t][3*n+3]=u[2]):1===i?(e[3*t+1][3*n+3]=u[0],e[3*t+2][3*n+3]=u[1],e[3*t+3][3*n+3]=u[2]):2===i?(e[3*t+3][3*n+2]=u[0],e[3*t+3][3*n+1]=u[1],0===n&amp;&amp;(e[3*t+3][3*n+0]=u[2])):(e[3*t+2][3*n]=u[0],e[3*t+1][3*n]=u[1]);break;default:console.error(&quot;mesh.js: &quot;+c+&quot; invalid path type.&quot;)}if(0===t&amp;&amp;0===n||r&gt;0){let e=window.getComputedStyle(o[r]).stopColor.match(/^rgb\s*\(\s*(\d+)\s*,\s*(\d+)\s*,\s*(\d+)\s*\)$/i),a=window.getComputedStyle(o[r]).stopOpacity,h=255;a&amp;&amp;(h=Math.floor(255*a)),e&amp;&amp;(0===i?(s[t][n]=[],s[t][n][0]=Math.floor(e[1]),s[t][n][1]=Math.floor(e[2]),s[t][n][2]=Math.floor(e[3]),s[t][n][3]=h):1===i?(s[t][n+1]=[],s[t][n+1][0]=Math.floor(e[1]),s[t][n+1][1]=Math.floor(e[2]),s[t][n+1][2]=Math.floor(e[3]),s[t][n+1][3]=h):2===i?(s[t+1][n+1]=[],s[t+1][n+1][0]=Math.floor(e[1]),s[t+1][n+1][1]=Math.floor(e[2]),s[t+1][n+1][2]=Math.floor(e[3]),s[t+1][n+1][3]=h):3===i&amp;&amp;(s[t+1][n]=[],s[t+1][n][0]=Math.floor(e[1]),s[t+1][n][1]=Math.floor(e[2]),s[t+1][n][2]=Math.floor(e[3]),s[t+1][n][3]=h))}}e[3*t+1][3*n+1]=new x,e[3*t+1][3*n+2]=new x,e[3*t+2][3*n+1]=new x,e[3*t+2][3*n+2]=new x,e[3*t+1][3*n+1].x=(-4*e[3*t][3*n].x+6*(e[3*t][3*n+1].x+e[3*t+1][3*n].x)+-2*(e[3*t][3*n+3].x+e[3*t+3][3*n].x)+3*(e[3*t+3][3*n+1].x+e[3*t+1][3*n+3].x)+-1*e[3*t+3][3*n+3].x)/9,e[3*t+1][3*n+2].x=(-4*e[3*t][3*n+3].x+6*(e[3*t][3*n+2].x+e[3*t+1][3*n+3].x)+-2*(e[3*t][3*n].x+e[3*t+3][3*n+3].x)+3*(e[3*t+3][3*n+2].x+e[3*t+1][3*n].x)+-1*e[3*t+3][3*n].x)/9,e[3*t+2][3*n+1].x=(-4*e[3*t+3][3*n].x+6*(e[3*t+3][3*n+1].x+e[3*t+2][3*n].x)+-2*(e[3*t+3][3*n+3].x+e[3*t][3*n].x)+3*(e[3*t][3*n+1].x+e[3*t+2][3*n+3].x)+-1*e[3*t][3*n+3].x)/9,e[3*t+2][3*n+2].x=(-4*e[3*t+3][3*n+3].x+6*(e[3*t+3][3*n+2].x+e[3*t+2][3*n+3].x)+-2*(e[3*t+3][3*n].x+e[3*t][3*n+3].x)+3*(e[3*t][3*n+2].x+e[3*t+2][3*n].x)+-1*e[3*t][3*n].x)/9,e[3*t+1][3*n+1].y=(-4*e[3*t][3*n].y+6*(e[3*t][3*n+1].y+e[3*t+1][3*n].y)+-2*(e[3*t][3*n+3].y+e[3*t+3][3*n].y)+3*(e[3*t+3][3*n+1].y+e[3*t+1][3*n+3].y)+-1*e[3*t+3][3*n+3].y)/9,e[3*t+1][3*n+2].y=(-4*e[3*t][3*n+3].y+6*(e[3*t][3*n+2].y+e[3*t+1][3*n+3].y)+-2*(e[3*t][3*n].y+e[3*t+3][3*n+3].y)+3*(e[3*t+3][3*n+2].y+e[3*t+1][3*n].y)+-1*e[3*t+3][3*n].y)/9,e[3*t+2][3*n+1].y=(-4*e[3*t+3][3*n].y+6*(e[3*t+3][3*n+1].y+e[3*t+2][3*n].y)+-2*(e[3*t+3][3*n+3].y+e[3*t][3*n].y)+3*(e[3*t][3*n+1].y+e[3*t+2][3*n+3].y)+-1*e[3*t][3*n+3].y)/9,e[3*t+2][3*n+2].y=(-4*e[3*t+3][3*n+3].y+6*(e[3*t+3][3*n+2].y+e[3*t+2][3*n+3].y)+-2*(e[3*t+3][3*n].y+e[3*t][3*n+3].y)+3*(e[3*t][3*n+2].y+e[3*t+2][3*n].y)+-1*e[3*t][3*n].y)/9}}this.nodes=e,this.colors=s}paintMesh(t,e){let s=(this.nodes.length-1)/3,r=(this.nodes[0].length-1)/3;if(&quot;bilinear&quot;===this.type||s&lt;2||r&lt;2){let n;for(let o=0;o&lt;s;++o)for(let s=0;s&lt;r;++s){let r=[];for(let t=3*o,e=3*o+4;t&lt;e;++t)r.push(this.nodes[t].slice(3*s,3*s+4));let i=[];i.push(this.colors[o].slice(s,s+2)),i.push(this.colors[o+1].slice(s,s+2)),(n=new m(r,i)).paint(t,e)}}else{let n,o,a,h,l,d,u;const x=s,g=r;s++,r++;let w=new Array(s);for(let t=0;t&lt;s;++t){w[t]=new Array(r);for(let e=0;e&lt;r;++e)w[t][e]=[],w[t][e][0]=this.nodes[3*t][3*e],w[t][e][1]=this.colors[t][e]}for(let t=0;t&lt;s;++t)for(let e=0;e&lt;r;++e)0!==t&amp;&amp;t!==x&amp;&amp;(n=i(w[t-1][e][0],w[t][e][0]),o=i(w[t+1][e][0],w[t][e][0]),w[t][e][2]=c(w[t-1][e][1],w[t][e][1],w[t+1][e][1],n,o)),0!==e&amp;&amp;e!==g&amp;&amp;(n=i(w[t][e-1][0],w[t][e][0]),o=i(w[t][e+1][0],w[t][e][0]),w[t][e][3]=c(w[t][e-1][1],w[t][e][1],w[t][e+1][1],n,o));for(let t=0;t&lt;r;++t){w[0][t][2]=[],w[x][t][2]=[];for(let e=0;e&lt;4;++e)n=i(w[1][t][0],w[0][t][0]),o=i(w[x][t][0],w[x-1][t][0]),w[0][t][2][e]=n&gt;0?2*(w[1][t][1][e]-w[0][t][1][e])/n-w[1][t][2][e]:0,w[x][t][2][e]=o&gt;0?2*(w[x][t][1][e]-w[x-1][t][1][e])/o-w[x-1][t][2][e]:0}for(let t=0;t&lt;s;++t){w[t][0][3]=[],w[t][g][3]=[];for(let e=0;e&lt;4;++e)n=i(w[t][1][0],w[t][0][0]),o=i(w[t][g][0],w[t][g-1][0]),w[t][0][3][e]=n&gt;0?2*(w[t][1][1][e]-w[t][0][1][e])/n-w[t][1][3][e]:0,w[t][g][3][e]=o&gt;0?2*(w[t][g][1][e]-w[t][g-1][1][e])/o-w[t][g-1][3][e]:0}for(let s=0;s&lt;x;++s)for(let r=0;r&lt;g;++r){let n=i(w[s][r][0],w[s+1][r][0]),o=i(w[s][r+1][0],w[s+1][r+1][0]),c=i(w[s][r][0],w[s][r+1][0]),x=i(w[s+1][r][0],w[s+1][r+1][0]),g=[[],[],[],[]];for(let t=0;t&lt;4;++t){(d=[])[0]=w[s][r][1][t],d[1]=w[s+1][r][1][t],d[2]=w[s][r+1][1][t],d[3]=w[s+1][r+1][1][t],d[4]=w[s][r][2][t]*n,d[5]=w[s+1][r][2][t]*n,d[6]=w[s][r+1][2][t]*o,d[7]=w[s+1][r+1][2][t]*o,d[8]=w[s][r][3][t]*c,d[9]=w[s+1][r][3][t]*x,d[10]=w[s][r+1][3][t]*c,d[11]=w[s+1][r+1][3][t]*x,d[12]=0,d[13]=0,d[14]=0,d[15]=0,u=f(d);for(let e=0;e&lt;9;++e){g[t][e]=[];for(let s=0;s&lt;9;++s)g[t][e][s]=p(u,e/8,s/8),g[t][e][s]&gt;255?g[t][e][s]=255:g[t][e][s]&lt;0&amp;&amp;(g[t][e][s]=0)}}h=[];for(let t=3*s,e=3*s+4;t&lt;e;++t)h.push(this.nodes[t].slice(3*r,3*r+4));l=y(h);for(let s=0;s&lt;8;++s)for(let r=0;r&lt;8;++r)(a=new m(l[s][r],[[[g[0][s][r],g[1][s][r],g[2][s][r],g[3][s][r]],[g[0][s][r+1],g[1][s][r+1],g[2][s][r+1],g[3][s][r+1]]],[[g[0][s+1][r],g[1][s+1][r],g[2][s+1][r],g[3][s+1][r]],[g[0][s+1][r+1],g[1][s+1][r+1],g[2][s+1][r+1],g[3][s+1][r+1]]]])).paint(t,e)}}}transform(t){if(t instanceof x)for(let e=0,s=this.nodes.length;e&lt;s;++e)for(let s=0,r=this.nodes[0].length;s&lt;r;++s)this.nodes[e][s]=this.nodes[e][s].add(t);else if(t instanceof g)for(let e=0,s=this.nodes.length;e&lt;s;++e)for(let s=0,r=this.nodes[0].length;s&lt;r;++s)this.nodes[e][s]=this.nodes[e][s].transform(t)}scale(t){for(let e=0,s=this.nodes.length;e&lt;s;++e)for(let s=0,r=this.nodes[0].length;s&lt;r;++s)this.nodes[e][s]=this.nodes[e][s].scale(t)}}document.querySelectorAll(&quot;rect,circle,ellipse,path,text&quot;).forEach((r,n)=&gt;{let o=r.getAttribute(&quot;id&quot;);o||(o=&quot;patchjs_shape&quot;+n,r.setAttribute(&quot;id&quot;,o));const i=r.style.fill.match(/^url\(\s*&quot;?\s*#([^\s&quot;]+)&quot;?\s*\)/),a=r.style.stroke.match(/^url\(\s*&quot;?\s*#([^\s&quot;]+)&quot;?\s*\)/);if(i&amp;&amp;i[1]){const a=document.getElementById(i[1]);if(a&amp;&amp;&quot;meshgradient&quot;===a.nodeName){const i=r.getBBox();let l=document.createElementNS(s,&quot;canvas&quot;);d(l,{width:i.width,height:i.height});const c=l.getContext(&quot;2d&quot;);let u=c.createImageData(i.width,i.height);const f=new b(a);&quot;objectBoundingBox&quot;===a.getAttribute(&quot;gradientUnits&quot;)&amp;&amp;f.scale(new x(i.width,i.height));const p=a.getAttribute(&quot;gradientTransform&quot;);null!=p&amp;&amp;f.transform(h(p)),&quot;userSpaceOnUse&quot;===a.getAttribute(&quot;gradientUnits&quot;)&amp;&amp;f.transform(new x(-i.x,-i.y)),f.paintMesh(u.data,l.width),c.putImageData(u,0,0);const y=document.createElementNS(t,&quot;image&quot;);d(y,{width:i.width,height:i.height,x:i.x,y:i.y});let g=l.toDataURL();y.setAttributeNS(e,&quot;xlink:href&quot;,g),r.parentNode.insertBefore(y,r),r.style.fill=&quot;none&quot;;const w=document.createElementNS(t,&quot;use&quot;);w.setAttributeNS(e,&quot;xlink:href&quot;,&quot;#&quot;+o);const m=&quot;patchjs_clip&quot;+n,M=document.createElementNS(t,&quot;clipPath&quot;);M.setAttribute(&quot;id&quot;,m),M.appendChild(w),r.parentElement.insertBefore(M,r),y.setAttribute(&quot;clip-path&quot;,&quot;url(#&quot;+m+&quot;)&quot;),u=null,l=null,g=null}}if(a&amp;&amp;a[1]){const o=document.getElementById(a[1]);if(o&amp;&amp;&quot;meshgradient&quot;===o.nodeName){const i=parseFloat(r.style.strokeWidth.slice(0,-2))*(parseFloat(r.style.strokeMiterlimit)||parseFloat(r.getAttribute(&quot;stroke-miterlimit&quot;))||1),a=r.getBBox(),l=Math.trunc(a.width+i),c=Math.trunc(a.height+i),u=Math.trunc(a.x-i/2),f=Math.trunc(a.y-i/2);let p=document.createElementNS(s,&quot;canvas&quot;);d(p,{width:l,height:c});const y=p.getContext(&quot;2d&quot;);let g=y.createImageData(l,c);const w=new b(o);&quot;objectBoundingBox&quot;===o.getAttribute(&quot;gradientUnits&quot;)&amp;&amp;w.scale(new x(l,c));const m=o.getAttribute(&quot;gradientTransform&quot;);null!=m&amp;&amp;w.transform(h(m)),&quot;userSpaceOnUse&quot;===o.getAttribute(&quot;gradientUnits&quot;)&amp;&amp;w.transform(new x(-u,-f)),w.paintMesh(g.data,p.width),y.putImageData(g,0,0);const M=document.createElementNS(t,&quot;image&quot;);d(M,{width:l,height:c,x:0,y:0});let S=p.toDataURL();M.setAttributeNS(e,&quot;xlink:href&quot;,S);const k=&quot;pattern_clip&quot;+n,A=document.createElementNS(t,&quot;pattern&quot;);d(A,{id:k,patternUnits:&quot;userSpaceOnUse&quot;,width:l,height:c,x:u,y:f}),A.appendChild(M),o.parentNode.appendChild(A),r.style.stroke=&quot;url(#&quot;+k+&quot;)&quot;,g=null,p=null,S=null}}})}();
</script>
</svg>
