<?xml version="1.0" encoding="UTF-8" standalone="no"?>

<svg
   width="23.307556mm"
   height="9.8611755mm"
   viewBox="0 0 23.307556 9.8611755"
   version="1.1"
   id="svg1"
   xmlns="http://www.w3.org/2000/svg">
  <defs
     id="defs1" />
  <g
     id="layer1"
     transform="translate(-41.942472,-137.38531)">
    <g
       id="text1"
       style="font-size:8.46667px;font-family:Comfortaa;-inkscape-font-specification:'Comfortaa, @wght=300';font-variation-settings:'wght' 300;fill:#ffffff;stroke:#950000;stroke-opacity:0"
       aria-label="manga">
      <path
         style="font-size:6.35px"
         d="m 47.224022,141.40321 q -0.08255,0 -0.1397,-0.0508 -0.0508,-0.0571 -0.0508,-0.1397 v -1.83515 q 0,-0.48895 -0.26035,-0.8001 -0.254,-0.31115 -0.66675,-0.31115 -0.43815,0 -0.71755,0.2921 -0.27305,0.28575 -0.26035,0.7747 h -0.381 q 0.0127,-0.43815 0.1905,-0.762 0.1778,-0.32385 0.4826,-0.50165 0.3048,-0.18415 0.6858,-0.18415 0.38735,0 0.67945,0.1905 0.2921,0.1905 0.4572,0.52705 0.17145,0.33655 0.17145,0.7747 v 1.83515 q 0,0.0826 -0.0508,0.1397 -0.0508,0.0508 -0.1397,0.0508 z m -4.59105,0 q -0.08255,0 -0.1397,-0.0508 -0.0508,-0.0571 -0.0508,-0.1397 v -3.09245 q 0,-0.0889 0.0508,-0.1397 0.05715,-0.0508 0.1397,-0.0508 0.0889,0 0.1397,0.0508 0.0508,0.0508 0.0508,0.1397 v 3.09245 q 0,0.0826 -0.0508,0.1397 -0.0508,0.0508 -0.1397,0.0508 z m 2.30505,0 q -0.08255,0 -0.1397,-0.0508 -0.0508,-0.0571 -0.0508,-0.1397 v -1.83515 q 0,-0.48895 -0.26035,-0.8001 -0.254,-0.31115 -0.66675,-0.31115 -0.43815,0 -0.71755,0.2794 -0.2794,0.2794 -0.2794,0.7239 h -0.3175 q 0.01905,-0.4064 0.1905,-0.71755 0.1778,-0.31115 0.4699,-0.48895 0.2921,-0.1778 0.65405,-0.1778 0.38735,0 0.67945,0.1905 0.2921,0.1905 0.4572,0.52705 0.17145,0.33655 0.17145,0.7747 v 1.83515 q 0,0.0826 -0.0508,0.1397 -0.0508,0.0508 -0.1397,0.0508 z"
         id="path6" />
      <path
         style="font-size:6.35px;fill:#f30000"
         d="m 50.081516,141.44131 q -0.508,0 -0.9144,-0.2286 -0.40005,-0.23495 -0.635,-0.635 -0.2286,-0.4064 -0.2286,-0.90805 0,-0.508 0.2286,-0.90805 0.23495,-0.4064 0.635,-0.635 0.4064,-0.23495 0.9144,-0.23495 0.508,0 0.90805,0.23495 0.40005,0.2286 0.62865,0.635 0.23495,0.40005 0.23495,0.90805 l -0.15875,0.254 q 0,0.4318 -0.2159,0.7747 -0.20955,0.3429 -0.5715,0.5461 -0.36195,0.19685 -0.8255,0.19685 z m 0,-0.3556 q 0.40005,0 0.7112,-0.18415 0.3175,-0.1905 0.4953,-0.508 0.18415,-0.32385 0.18415,-0.7239 0,-0.4064 -0.18415,-0.7239 -0.1778,-0.32385 -0.4953,-0.508 -0.31115,-0.1905 -0.7112,-0.1905 -0.3937,0 -0.7112,0.1905 -0.3175,0.18415 -0.50165,0.508 -0.18415,0.3175 -0.18415,0.7239 0,0.40005 0.18415,0.7239 0.18415,0.3175 0.50165,0.508 0.3175,0.18415 0.7112,0.18415 z m 1.58115,0.3175 q -0.08255,0 -0.1397,-0.0508 -0.0508,-0.0571 -0.0508,-0.1397 v -1.16205 l 0.12065,-0.381 h 0.26035 v 1.54305 q 0,0.0826 -0.0508,0.1397 -0.0508,0.0508 -0.1397,0.0508 z"
         id="path7" />
      <path
         style="font-size:6.35px"
         d="m 55.809221,141.40321 q -0.08255,0 -0.1397,-0.0508 -0.0508,-0.0571 -0.0508,-0.1397 v -1.70815 q 0,-0.4191 -0.1651,-0.69215 -0.15875,-0.27305 -0.43815,-0.4064 -0.27305,-0.1397 -0.6223,-0.1397 -0.3429,0 -0.61595,0.13335 -0.27305,0.127 -0.4318,0.3556 -0.15875,0.2286 -0.15875,0.51435 h -0.3175 q 0.0254,-0.3937 0.23495,-0.70485 0.20955,-0.3175 0.5461,-0.4953 0.33655,-0.18415 0.74295,-0.18415 0.4572,0 0.81915,0.1905 0.3683,0.18415 0.57785,0.5461 0.20955,0.3556 0.20955,0.88265 v 1.70815 q 0,0.0826 -0.05715,0.1397 -0.0508,0.0508 -0.13335,0.0508 z m -2.81305,0 q -0.08255,0 -0.1397,-0.0508 -0.0508,-0.0571 -0.0508,-0.1397 v -3.09245 q 0,-0.0889 0.0508,-0.1397 0.05715,-0.0508 0.1397,-0.0508 0.0889,0 0.1397,0.0508 0.0508,0.0508 0.0508,0.1397 v 3.09245 q 0,0.0826 -0.0508,0.1397 -0.0508,0.0508 -0.1397,0.0508 z m 5.670552,0.0381 q -0.5207,0 -0.92075,-0.2286 -0.40005,-0.2286 -0.62865,-0.62865 -0.2286,-0.40005 -0.2286,-0.9144 0,-0.5207 0.23495,-0.92075 0.23495,-0.40005 0.635,-0.62865 0.4064,-0.2286 0.90805,-0.2286 0.5207,0 0.9144,0.2286 0.40005,0.2286 0.62865,0.62865 0.2286,0.40005 0.2286,0.92075 l -0.22225,0.254 q 0,0.4445 -0.19685,0.7874 -0.19685,0.3429 -0.5461,0.53975 -0.34925,0.1905 -0.80645,0.1905 z m 0.0254,1.28905 q -0.52705,0 -0.9017,-0.19685 -0.3683,-0.19685 -0.6096,-0.50165 -0.0508,-0.0635 -0.0508,-0.13335 0,-0.0698 0.0635,-0.1143 0.0635,-0.0508 0.14605,-0.0381 0.0889,0.0127 0.13335,0.0826 0.19685,0.23495 0.50165,0.38735 0.3048,0.15875 0.71755,0.15875 0.3937,0 0.6985,-0.1905 0.31115,-0.1905 0.48895,-0.52705 0.1778,-0.3302 0.1778,-0.74295 v -1.00965 l 0.17145,-0.23495 h 0.20955 v 1.2446 q 0,0.51435 -0.2286,0.9271 -0.2286,0.41275 -0.6223,0.6477 -0.3937,0.2413 -0.89535,0.2413 z m -0.0254,-1.64465 q 0.4064,0 0.71755,-0.1778 0.3175,-0.18415 0.4953,-0.50165 0.1778,-0.32385 0.1778,-0.7366 0,-0.4191 -0.1778,-0.7366 -0.1778,-0.32385 -0.4953,-0.50165 -0.31115,-0.18415 -0.71755,-0.18415 -0.4064,0 -0.7239,0.18415 -0.3175,0.1778 -0.4953,0.50165 -0.1778,0.3175 -0.1778,0.7366 0,0.41275 0.1778,0.7366 0.1778,0.3175 0.4953,0.50165 0.3175,0.1778 0.7239,0.1778 z m 4.311655,0.3556 q -0.508,0 -0.9144,-0.2286 -0.40005,-0.23495 -0.635,-0.635 -0.2286,-0.4064 -0.2286,-0.90805 0,-0.508 0.2286,-0.90805 0.23495,-0.4064 0.635,-0.635 0.4064,-0.23495 0.9144,-0.23495 0.508,0 0.90805,0.23495 0.40005,0.2286 0.62865,0.635 0.23495,0.40005 0.23495,0.90805 l -0.15875,0.254 q 0,0.4318 -0.2159,0.7747 -0.20955,0.3429 -0.5715,0.5461 -0.36195,0.19685 -0.8255,0.19685 z m 0,-0.3556 q 0.40005,0 0.7112,-0.18415 0.3175,-0.1905 0.4953,-0.508 0.18415,-0.32385 0.18415,-0.7239 0,-0.4064 -0.18415,-0.7239 -0.1778,-0.32385 -0.4953,-0.508 -0.31115,-0.1905 -0.7112,-0.1905 -0.3937,0 -0.7112,0.1905 -0.3175,0.18415 -0.50165,0.508 -0.18415,0.3175 -0.18415,0.7239 0,0.40005 0.18415,0.7239 0.18415,0.3175 0.50165,0.508 0.3175,0.18415 0.7112,0.18415 z m 1.58115,0.3175 q -0.08255,0 -0.1397,-0.0508 -0.0508,-0.0571 -0.0508,-0.1397 v -1.16205 l 0.12065,-0.381 h 0.26035 v 1.54305 q 0,0.0826 -0.0508,0.1397 -0.0508,0.0508 -0.1397,0.0508 z"
         id="path8" />
    </g>
    <text
       xml:space="preserve"
       style="font-style:normal;font-variant:normal;font-weight:normal;font-stretch:normal;font-size:6.35px;font-family:Comfortaa;-inkscape-font-specification:'Comfortaa, @wght=300';font-variant-ligatures:normal;font-variant-caps:normal;font-variant-numeric:normal;font-variant-east-asian:normal;font-variation-settings:'wght' 300;fill:#fd0000;stroke:#950000;stroke-width:1;stroke-opacity:0"
       x="56.818546"
       y="148.5887"
       id="text2"><tspan
         id="tspan2"
         style="font-style:normal;font-variant:normal;font-weight:normal;font-stretch:normal;font-size:6.35px;font-family:Comfortaa;-inkscape-font-specification:'Comfortaa, @wght=300';font-variant-ligatures:normal;font-variant-caps:normal;font-variant-numeric:normal;font-variant-east-asian:normal;font-variation-settings:'wght' 300;stroke-width:1"
         x="56.818546"
         y="148.5887" /></text>
    <g
       id="text3"
       style="font-size:6.35px;font-family:Comfortaa;-inkscape-font-specification:'Comfortaa, @wght=300';font-variation-settings:'wght' 300;fill:#ffffff;stroke:#950000;stroke-opacity:0"
       aria-label="realm">
      <path
         d="m 46.66553,144.58749 q 0.0381,-0.4064 0.22225,-0.71755 0.18415,-0.3175 0.47625,-0.4953 0.2921,-0.1778 0.6477,-0.1778 0.2413,0 0.37465,0.0571 0.13335,0.0572 0.1016,0.2032 -0.01905,0.0952 -0.0889,0.1143 -0.06985,0.019 -0.17145,0.006 -0.09525,-0.0191 -0.2159,-0.0191 -0.3175,0 -0.56515,0.13335 -0.24765,0.13335 -0.38735,0.3683 -0.1397,0.2286 -0.1397,0.52705 z m 0.0635,2.1209 q -0.08255,0 -0.1397,-0.0508 -0.0508,-0.0572 -0.0508,-0.1397 v -3.09245 q 0,-0.0889 0.0508,-0.1397 0.05715,-0.0508 0.1397,-0.0508 0.0889,0 0.1397,0.0508 0.0508,0.0508 0.0508,0.1397 v 3.09245 q 0,0.0825 -0.0508,0.1397 -0.0508,0.0508 -0.1397,0.0508 z m 3.873492,0.0317 q -0.50165,0 -0.89535,-0.22225 -0.38735,-0.2286 -0.6096,-0.62865 -0.22225,-0.40005 -0.22225,-0.9144 0,-0.5207 0.20955,-0.9144 0.20955,-0.40005 0.57785,-0.62865 0.3683,-0.2286 0.84455,-0.2286 0.4699,0 0.83185,0.22225 0.36195,0.2159 0.56515,0.60325 0.2032,0.381 0.2032,0.88265 0,0.0825 -0.0508,0.13335 -0.0508,0.0444 -0.13335,0.0444 h -2.794 v -0.3302 h 2.8956 l -0.2794,0.20955 q 0.0127,-0.41275 -0.1397,-0.73025 -0.1524,-0.3175 -0.43815,-0.4953 -0.2794,-0.18415 -0.6604,-0.18415 -0.36195,0 -0.6477,0.18415 -0.2794,0.1778 -0.4445,0.4953 -0.15875,0.3175 -0.15875,0.7366 0,0.41275 0.17145,0.73025 0.17145,0.3175 0.47625,0.50165 0.3048,0.1778 0.6985,0.1778 0.24765,0 0.4953,-0.0825 0.254,-0.0889 0.40005,-0.2286 0.0508,-0.0508 0.12065,-0.0508 0.0762,-0.006 0.127,0.0381 0.06985,0.0572 0.06985,0.127 0.0063,0.0699 -0.05715,0.127 -0.2032,0.18415 -0.5334,0.3048 -0.32385,0.12065 -0.6223,0.12065 z"
         id="path9" />
      <path
         style="fill:#4b86c4"
         d="m 54.520467,146.74649 q -0.508,0 -0.9144,-0.2286 -0.40005,-0.23495 -0.635,-0.635 -0.2286,-0.4064 -0.2286,-0.90805 0,-0.508 0.2286,-0.90805 0.23495,-0.4064 0.635,-0.635 0.4064,-0.23495 0.9144,-0.23495 0.508,0 0.90805,0.23495 0.40005,0.2286 0.62865,0.635 0.23495,0.40005 0.23495,0.90805 l -0.15875,0.254 q 0,0.4318 -0.2159,0.7747 -0.20955,0.3429 -0.5715,0.5461 -0.36195,0.19685 -0.8255,0.19685 z m 0,-0.3556 q 0.40005,0 0.7112,-0.18415 0.3175,-0.1905 0.4953,-0.508 0.18415,-0.32385 0.18415,-0.7239 0,-0.4064 -0.18415,-0.7239 -0.1778,-0.32385 -0.4953,-0.508 -0.31115,-0.1905 -0.7112,-0.1905 -0.3937,0 -0.7112,0.1905 -0.3175,0.18415 -0.50165,0.508 -0.18415,0.3175 -0.18415,0.7239 0,0.40005 0.18415,0.7239 0.18415,0.3175 0.50165,0.508 0.3175,0.18415 0.7112,0.18415 z m 1.58115,0.3175 q -0.08255,0 -0.1397,-0.0508 -0.0508,-0.0572 -0.0508,-0.1397 v -1.16205 l 0.12065,-0.381 h 0.26035 v 1.54305 q 0,0.0825 -0.0508,0.1397 -0.0508,0.0508 -0.1397,0.0508 z"
         id="path10" />
      <path
         d="m 57.943122,146.70839 q -0.2413,0 -0.4318,-0.13335 -0.18415,-0.13335 -0.2921,-0.3683 -0.1016,-0.23495 -0.1016,-0.5461 v -3.7211 q 0,-0.0889 0.0508,-0.1397 0.05715,-0.0508 0.1397,-0.0508 0.0889,0 0.1397,0.0508 0.0508,0.0508 0.0508,0.1397 v 3.7211 q 0,0.2921 0.12065,0.4826 0.127,0.18415 0.32385,0.18415 h 0.15875 q 0.06985,0 0.1143,0.0508 0.04445,0.0508 0.04445,0.1397 0,0.0825 -0.0508,0.1397 -0.0508,0.0508 -0.1397,0.0508 z m 5.797554,0 q -0.08255,0 -0.1397,-0.0508 -0.0508,-0.0572 -0.0508,-0.1397 v -1.83515 q 0,-0.48895 -0.26035,-0.8001 -0.254,-0.31115 -0.66675,-0.31115 -0.43815,0 -0.71755,0.2921 -0.27305,0.28575 -0.26035,0.7747 h -0.381 q 0.0127,-0.43815 0.1905,-0.762 0.1778,-0.32385 0.4826,-0.50165 0.3048,-0.18415 0.6858,-0.18415 0.38735,0 0.67945,0.1905 0.2921,0.1905 0.4572,0.52705 0.17145,0.33655 0.17145,0.7747 v 1.83515 q 0,0.0825 -0.0508,0.1397 -0.0508,0.0508 -0.1397,0.0508 z m -4.59105,0 q -0.08255,0 -0.1397,-0.0508 -0.0508,-0.0572 -0.0508,-0.1397 v -3.09245 q 0,-0.0889 0.0508,-0.1397 0.05715,-0.0508 0.1397,-0.0508 0.0889,0 0.1397,0.0508 0.0508,0.0508 0.0508,0.1397 v 3.09245 q 0,0.0825 -0.0508,0.1397 -0.0508,0.0508 -0.1397,0.0508 z m 2.30505,0 q -0.08255,0 -0.1397,-0.0508 -0.0508,-0.0572 -0.0508,-0.1397 v -1.83515 q 0,-0.48895 -0.26035,-0.8001 -0.254,-0.31115 -0.66675,-0.31115 -0.43815,0 -0.71755,0.2794 -0.2794,0.2794 -0.2794,0.7239 h -0.3175 q 0.01905,-0.4064 0.1905,-0.71755 0.1778,-0.31115 0.4699,-0.48895 0.2921,-0.1778 0.65405,-0.1778 0.38735,0 0.67945,0.1905 0.2921,0.1905 0.4572,0.52705 0.17145,0.33655 0.17145,0.7747 v 1.83515 q 0,0.0825 -0.0508,0.1397 -0.0508,0.0508 -0.1397,0.0508 z"
         id="path11" />
    </g>
  </g>
</svg>
