<svg
    xmlns="http://www.w3.org/2000/svg"
    width="24"
    height="24"
    viewBox="0 0 24 24"
    fill="currentColor"
    role="img"
    style="display:inline-block;vertical-align:middle"
    version="1.1"
    id="svg1">
  <g
      fill="currentColor"
      id="g1">
    <path
        fill="currentColor"
        d="M13.878 8.75H4a.75.75 0 0 1 0-1.5h9.878a2.251 2.251 0 0 1 4.244 0H20a.75.75 0 0 1 0 1.5h-1.878a2.251 2.251 0 0 1-4.244 0Zm6.122 8a.75.75 0 0 0 0-1.5h-9.878a2.251 2.251 0 0 0-4.244 0H4a.75.75 0 0 0 0 1.5h1.878a2.25 2.25 0 0 0 4.244 0H20Z"
        id="path1" />
  </g>
</svg>